<?xml version="1.0" encoding="utf-8"?>
<!-- Generator: Adobe Illustrator 12.0.0, SVG Export Plug-In . SVG Version: 6.00 Build 51448)  -->
<!DOCTYPE svg PUBLIC "-//W3C//DTD SVG 1.1//EN" "http://www.w3.org/Graphics/SVG/1.1/DTD/svg11.dtd" [
	<!ENTITY ns_svg "http://www.w3.org/2000/svg">
	<!ENTITY ns_xlink "http://www.w3.org/1999/xlink">
]>
<svg  version="1.1" xmlns="&ns_svg;" xmlns:xlink="&ns_xlink;" width="128" height="128" viewBox="0 0 128 128"
	 overflow="visible" enable-background="new 0 0 128 128" xml:space="preserve">
<g id="Layer_2">
	<g id="Layer_3">
		<path id="path551" opacity="0.2" enable-background="new    " d="M118.239,49.874h-0.677H28.556l86.611-23.207
			c0.499-0.134,0.917-0.452,1.173-0.901c0.256-0.448,0.323-0.967,0.189-1.467l-2.857-10.667c-0.125-0.49-0.46-0.921-0.899-1.176
			c-0.45-0.256-0.972-0.324-1.468-0.19l-0.65,0.177c0,0,0.108,0.056,0.134,0.073c-0.714,0.089-1.964,0.419-4.403,1.073
			L11.316,39.057c-0.498,0.133-0.912,0.452-1.172,0.897c-0.172,0.302-0.262,0.63-0.262,0.965c0,0.169,0.022,0.339,0.066,0.503
			l2.839,10.588v10.836c0,1.063,0.866,1.929,1.929,1.929h4.032v56.771c0,0.969,0.723,1.793,1.684,1.917l0.582,0.073
			c0.63,0.074,2.284,0.252,4.215,0.252h86.67c3.573,0,6.476-2.947,6.476-6.569V64.763c1.003-0.07,1.799-0.898,1.799-1.913V51.805
			C120.173,50.742,119.305,49.874,118.239,49.874z"/>
		<path id="path552" opacity="0.2" enable-background="new    " d="M117.212,48.847h-0.678H27.527l86.611-23.209
			c0.499-0.133,0.915-0.454,1.171-0.903c0.259-0.445,0.325-0.965,0.193-1.465l-2.854-10.668c-0.132-0.49-0.46-0.919-0.905-1.175
			c-0.446-0.257-0.965-0.325-1.465-0.191l-0.655,0.176c0,0,0.11,0.054,0.136,0.068c-0.717,0.092-1.965,0.42-4.402,1.074
			L10.287,38.031c-0.497,0.133-0.913,0.453-1.172,0.898c-0.172,0.3-0.259,0.631-0.259,0.964c0,0.167,0.021,0.335,0.066,0.503
			l2.838,10.592v10.829c0,1.066,0.868,1.933,1.932,1.933h4.032v56.772c0,0.966,0.724,1.787,1.683,1.917l0.581,0.072
			c0.629,0.075,2.283,0.253,4.214,0.253h86.67c3.575,0,6.477-2.951,6.477-6.573V63.737c1-0.07,1.796-0.899,1.796-1.917V50.778
			C119.144,49.712,118.281,48.847,117.212,48.847z"/>
		<path id="path553" d="M116.183,47.817h-0.677H26.499l86.609-23.206c0.5-0.135,0.918-0.455,1.174-0.902
			c0.258-0.448,0.326-0.966,0.19-1.466l-2.856-10.669c-0.13-0.491-0.461-0.919-0.905-1.174c-0.443-0.257-0.963-0.326-1.463-0.19
			l-0.655,0.177c0,0,0.108,0.055,0.134,0.069c-0.715,0.09-1.963,0.42-4.4,1.074L9.26,37.002c-0.497,0.132-0.913,0.452-1.171,0.897
			c-0.172,0.302-0.26,0.632-0.26,0.965c0,0.167,0.021,0.339,0.066,0.503l2.84,10.588v10.832c0,1.064,0.866,1.931,1.931,1.931h4.032
			v56.774c0,0.969,0.723,1.793,1.682,1.917l0.583,0.072c0.629,0.078,2.283,0.253,4.211,0.253h86.67c3.573,0,6.478-2.948,6.478-6.573
			V62.706c0.998-0.071,1.796-0.897,1.796-1.918V49.746C118.115,48.683,117.247,47.817,116.183,47.817z"/>
		<path id="path554" d="M23.172,52.811c-3.002,0-5.448,2.487-5.448,5.543v61.14c0,0.455,0.337,0.837,0.787,0.898l0.578,0.072
			c0.644,0.078,2.224,0.24,4.08,0.24h86.671c3.004,0,5.449-2.488,5.449-5.544V58.354c0-3.056-2.445-5.543-5.449-5.543H23.172z"/>
		<path id="path555" fill="#FFFFFF" d="M19.291,118.896c0,0,1.738,0.227,3.881,0.227h86.67c2.146,0,3.882-1.775,3.882-3.963V58.354
			c0-2.191-1.736-3.966-3.882-3.966h-86.67c-2.143,0-3.881,1.775-3.881,3.966V118.896z"/>
		
			<linearGradient id="path573_1_" gradientUnits="userSpaceOnUse" x1="272.5078" y1="-301.8252" x2="272.5078" y2="-229.5685" gradientTransform="matrix(1 0 0 -1 -206 -168)">
			<stop  offset="0.0056" style="stop-color:#FFFFFF"/>
			<stop  offset="0.045" style="stop-color:#F8F8FA"/>
			<stop  offset="0.1027" style="stop-color:#E4E4EC"/>
			<stop  offset="0.1713" style="stop-color:#C4C4D4"/>
			<stop  offset="0.1854" style="stop-color:#BDBDCF"/>
			<stop  offset="0.1896" style="stop-color:#BEBED0"/>
			<stop  offset="0.2751" style="stop-color:#CACAD8"/>
			<stop  offset="0.3595" style="stop-color:#CECEDB"/>
			<stop  offset="0.7865" style="stop-color:#E9E9EF"/>
		</linearGradient>
		<path id="path573" opacity="0.8" fill="url(#path573_1_)" enable-background="new    " d="M19.291,118.896
			c0,0,1.738,0.227,3.881,0.227h86.67c2.146,0,3.882-1.775,3.882-3.963V58.354c0-2.191-1.736-3.966-3.882-3.966h-86.67
			c-2.143,0-3.881,1.775-3.881,3.966V118.896z"/>
		<path id="path574" opacity="0.5" fill="#FFFFFF" enable-background="new    " d="M109.842,54.387h-86.67
			c-2.143,0-3.881,1.775-3.881,3.966v60.543c0,0,1.738,0.227,3.881,0.227h86.67c2.146,0,3.882-1.775,3.882-3.963V58.354
			C113.724,56.162,111.987,54.387,109.842,54.387z M111.015,115.16c0,0.691-0.527,1.253-1.17,1.253H23.172
			c-0.415,0-0.801-0.011-1.172-0.026c0-4.606,0-58.033,0-58.033c0-0.691,0.527-1.258,1.172-1.258h86.67
			c0.646,0,1.173,0.565,1.173,1.258V115.16L111.015,115.16z"/>
		
			<linearGradient id="path586_1_" gradientUnits="userSpaceOnUse" x1="272.5068" y1="-227.1895" x2="272.5068" y2="-232.6169" gradientTransform="matrix(1 0 0 -1 -206 -168)">
			<stop  offset="0" style="stop-color:#616161"/>
			<stop  offset="0.1569" style="stop-color:#88888A"/>
			<stop  offset="0.326" style="stop-color:#ABABAE"/>
			<stop  offset="0.4963" style="stop-color:#C6C6CA"/>
			<stop  offset="0.6657" style="stop-color:#D9D9DF"/>
			<stop  offset="0.834" style="stop-color:#E5E5EB"/>
			<stop  offset="1" style="stop-color:#E9E9EF"/>
		</linearGradient>
		<path id="path586" opacity="0.8" fill="url(#path586_1_)" enable-background="new    " d="M19.291,66.158
			c0,0,1.738,0.043,3.881,0.043h86.67c2.146,0,3.882-0.325,3.882-0.726V55.111c0-0.396-1.736-0.722-3.882-0.722h-86.67
			c-2.143,0-3.881,0.325-3.881,0.722V66.158z"/>
		<path id="path587" d="M115.506,48.847H12.663c-0.497,0-0.903,0.404-0.903,0.902V60.79c0,0.497,0.406,0.902,0.903,0.902h103.52
			c0.499,0,0.905-0.405,0.905-0.902V49.75c0-0.498-0.403-0.902-0.905-0.902H115.506z"/>
		
			<linearGradient id="rect594_1_" gradientUnits="userSpaceOnUse" x1="270.4238" y1="-221.4229" x2="270.4238" y2="-225.8323" gradientTransform="matrix(1 0 0 -1 -206 -168)">
			<stop  offset="0" style="stop-color:#FFFFFF"/>
			<stop  offset="1" style="stop-color:#E9E9EF"/>
		</linearGradient>
		<rect id="rect594" x="13.343" y="50.423" fill="url(#rect594_1_)" width="102.163" height="9.687"/>
		
			<linearGradient id="path604_1_" gradientUnits="userSpaceOnUse" x1="458.3184" y1="-217.6914" x2="458.3184" y2="-232.9533" gradientTransform="matrix(1 0 -0.2679 -1 -454.7696 -168)">
			<stop  offset="0" style="stop-color:#CECEDB"/>
			<stop  offset="0.2977" style="stop-color:#828282"/>
			<stop  offset="1" style="stop-color:#000000"/>
		</linearGradient>
		<path id="path604" fill="url(#path604_1_)" d="M21.038,60.11h9.688l-4.304-9.687h-9.686L21.038,60.11 M66.052,50.423h-9.685
			l4.302,9.687h9.688L66.052,50.423 M46.236,50.423h-9.689l4.306,9.687h9.689L46.236,50.423 M105.688,50.423h-9.691l4.307,9.687
			h9.687L105.688,50.423 M85.869,50.423H76.18l4.306,9.687h9.693L85.869,50.423z"/>
		<path id="path605" d="M109.517,11.202l-0.656,0.177c0.003,0,0.003,0,0.003,0L9.525,37.996c-0.232,0.061-0.429,0.215-0.55,0.421
			C8.854,38.623,8.821,38.87,8.884,39.1l2.86,10.669c0.129,0.482,0.624,0.768,1.106,0.638l99.993-26.791
			c0.481-0.129,0.768-0.624,0.636-1.106l-2.854-10.668c-0.06-0.23-0.215-0.428-0.421-0.55
			C109.995,11.173,109.749,11.142,109.517,11.202z"/>
		
			<linearGradient id="polygon612_1_" gradientUnits="userSpaceOnUse" x1="266.4785" y1="-196.1567" x2="267.8418" y2="-201.244" gradientTransform="matrix(1 0 0 -1 -206 -168)">
			<stop  offset="0" style="stop-color:#FFFFFF"/>
			<stop  offset="1" style="stop-color:#CECEDB"/>
		</linearGradient>
		<polygon id="polygon612" fill="url(#polygon612_1_)" points="13.097,48.704 111.785,22.261 109.274,12.906 10.591,39.345 		"/>
		
			<linearGradient id="path627_1_" gradientUnits="userSpaceOnUse" x1="265.6797" y1="-192.2686" x2="270.6245" y2="-210.7237" gradientTransform="matrix(1 0 0 -1 -206 -168)">
			<stop  offset="0" style="stop-color:#CECEDB"/>
			<stop  offset="0.0054" style="stop-color:#CBCBD7"/>
			<stop  offset="0.0705" style="stop-color:#A5A5AD"/>
			<stop  offset="0.1338" style="stop-color:#87878C"/>
			<stop  offset="0.1941" style="stop-color:#727274"/>
			<stop  offset="0.2502" style="stop-color:#656566"/>
			<stop  offset="0.2977" style="stop-color:#616161"/>
			<stop  offset="1" style="stop-color:#000000"/>
		</linearGradient>
		<path id="path627" fill="url(#path627_1_)" d="M20.529,46.714l9.36-2.506l-4.155-8.918l-9.359,2.508L20.529,46.714 M64.01,25.035
			l-9.358,2.508l4.157,8.917l9.361-2.509L64.01,25.035 M44.871,30.162l-9.358,2.508l4.159,8.917l9.355-2.512L44.871,30.162
			 M102.292,14.777l-9.354,2.505l4.158,8.917l9.358-2.507L102.292,14.777 M83.151,19.907l-9.359,2.502l4.161,8.919l9.357-2.509
			L83.151,19.907z"/>
		<polyline id="_x3C_Slice_x3E_" fill="none" points="0.5,130.5 0.5,3.5 127.5,3.5 127.5,130.5 		"/>
	</g>
</g>
<g id="Layer_1">
	<g>
		<path id="path2427" d="M97.039,93.771c0,11.951-13.84,21.642-30.916,21.642c-17.077,0-30.919-9.69-30.919-21.642
			s13.842-21.641,30.919-21.641C83.198,72.131,97.039,81.82,97.039,93.771z M83.669,83.311c-4.403,0-7.972,2.262-7.972,5.049
			c0,2.789,3.568,5.051,7.972,5.051s7.972-2.262,7.972-5.051C91.641,85.572,88.072,83.311,83.669,83.311z M78.412,98.274
			c-4.405,0-7.972,2.326-7.972,5.194c0,2.869,3.566,5.196,7.972,5.196c4.4,0,7.973-2.327,7.973-5.196
			C86.385,100.601,82.813,98.274,78.412,98.274z M56.21,98.274c-4.405,0-7.973,2.326-7.973,5.194c0,2.869,3.567,5.196,7.973,5.196
			c4.402,0,7.971-2.327,7.971-5.196C64.181,100.601,60.612,98.274,56.21,98.274z M66.141,73.777c-4.403,0-7.971,1.939-7.971,4.328
			c0,2.393,3.568,4.33,7.971,4.33c4.402,0,7.975-1.938,7.975-4.33C74.115,75.717,70.543,73.777,66.141,73.777z M49.344,83.311
			c-4.404,0-7.972,2.262-7.972,5.049c0,2.789,3.568,5.051,7.972,5.051c4.402,0,7.972-2.262,7.972-5.051
			C57.316,85.572,53.746,83.311,49.344,83.311z"/>
		
			<linearGradient id="path8_1_" gradientUnits="userSpaceOnUse" x1="1372.4707" y1="-1674.2158" x2="1372.4707" y2="-1845.3198" gradientTransform="matrix(0.2204 0 0 -0.2204 -236.4372 -295.5671)">
			<stop  offset="0" style="stop-color:#9E9E9E"/>
			<stop  offset="1" style="stop-color:#616161"/>
		</linearGradient>
		<path id="path8" fill="url(#path8_1_)" d="M97.009,93.469c0,11.951-13.841,21.642-30.915,21.642
			c-17.078,0-30.919-9.69-30.919-21.642s13.842-21.641,30.919-21.641C83.168,71.828,97.009,81.518,97.009,93.469z M83.639,83.008
			c-4.402,0-7.972,2.262-7.972,5.049c0,2.789,3.569,5.051,7.972,5.051c4.403,0,7.973-2.262,7.973-5.051
			C91.611,85.27,88.042,83.008,83.639,83.008z M78.383,97.973c-4.406,0-7.973,2.325-7.973,5.193c0,2.87,3.566,5.197,7.973,5.197
			c4.4,0,7.972-2.327,7.972-5.197C86.354,100.298,82.783,97.973,78.383,97.973z M56.18,97.973c-4.405,0-7.972,2.325-7.972,5.193
			c0,2.87,3.567,5.197,7.972,5.197c4.402,0,7.971-2.327,7.971-5.197C64.15,100.298,60.582,97.973,56.18,97.973z M66.111,73.475
			c-4.404,0-7.972,1.939-7.972,4.328c0,2.393,3.568,4.33,7.972,4.33c4.402,0,7.974-1.938,7.974-4.33
			C74.085,75.414,70.514,73.475,66.111,73.475z M49.314,83.008c-4.404,0-7.972,2.262-7.972,5.049c0,2.789,3.568,5.051,7.972,5.051
			c4.402,0,7.972-2.262,7.972-5.051C57.287,85.27,53.716,83.008,49.314,83.008z"/>
		
			<linearGradient id="path15_1_" gradientUnits="userSpaceOnUse" x1="1372.6123" y1="-1797.0776" x2="1372.6123" y2="-1690.5963" gradientTransform="matrix(0.2204 0 0 -0.2204 -236.4372 -295.5671)">
			<stop  offset="0" style="stop-color:#171717"/>
			<stop  offset="1" style="stop-color:#828282"/>
		</linearGradient>
		<path id="path15" fill="url(#path15_1_)" d="M85.652,88.539c0,6.896-8.742,12.486-19.529,12.486
			c-10.785,0-19.528-5.59-19.528-12.486s8.744-12.486,19.528-12.486C76.91,76.053,85.652,81.643,85.652,88.539z"/>
		<path id="path17" opacity="0.42" fill="#B2B2B2" enable-background="new    " d="M85.841,85.723
			c0,6.896-8.743,12.486-19.528,12.486c-10.786,0-19.529-5.59-19.529-12.486s8.743-12.486,19.529-12.486
			C77.098,73.236,85.841,78.826,85.841,85.723z"/>
		
			<linearGradient id="path24_1_" gradientUnits="userSpaceOnUse" x1="1373.4717" y1="-1780.4639" x2="1373.4717" y2="-1673.9814" gradientTransform="matrix(0.2204 0 0 -0.2204 -236.4372 -295.5671)">
			<stop  offset="0" style="stop-color:#171717"/>
			<stop  offset="1" style="stop-color:#828282"/>
		</linearGradient>
		<path id="path24" fill="url(#path24_1_)" d="M85.841,84.878c0,6.896-8.743,12.485-19.528,12.485
			c-10.786,0-19.529-5.59-19.529-12.485c0-6.896,8.743-12.487,19.529-12.487C77.098,72.391,85.841,77.981,85.841,84.878z"/>
		
			<linearGradient id="path31_1_" gradientUnits="userSpaceOnUse" x1="1372.4707" y1="-1842.8828" x2="1372.4707" y2="-1683.5514" gradientTransform="matrix(0.2204 0 0 -0.2204 -236.4372 -295.5671)">
			<stop  offset="0" style="stop-color:#171717"/>
			<stop  offset="1" style="stop-color:#828282"/>
		</linearGradient>
		<path id="path31" fill="url(#path31_1_)" d="M92.726,90.676c-0.616,8.477-11.925,15.233-25.789,15.233
			c-14.259,0-25.819-7.146-25.819-15.961c0-0.421,0.035-0.837,0.087-1.248c-2.323,2.201-3.655,4.739-3.655,7.443
			c0,8.401,12.778,15.211,28.542,15.211c15.762,0,28.541-6.81,28.541-15.211C94.633,94.216,93.953,92.374,92.726,90.676z"/>
		<path id="path33" fill="#CCCCCC" d="M95.998,87.178c0,11.017-13.431,19.95-29.998,19.95c-16.566,0-29.996-8.934-29.996-19.95
			c0-11.019,13.429-19.951,29.996-19.951C82.567,67.227,95.998,76.159,95.998,87.178z M66,68.072
			c-15.279,0-27.666,8.238-27.666,18.401c0,10.161,12.386,18.399,27.666,18.399c15.281,0,27.667-8.238,27.667-18.399
			C93.667,76.311,81.281,68.072,66,68.072z"/>
		
			<linearGradient id="path40_1_" gradientUnits="userSpaceOnUse" x1="1372.0547" y1="-1831.1602" x2="1372.0544" y2="-1580.3392" gradientTransform="matrix(0.2204 0 0 -0.2204 -236.4372 -295.5671)">
			<stop  offset="0" style="stop-color:#FEFEFE"/>
			<stop  offset="1" style="stop-color:#303030"/>
		</linearGradient>
		<path id="path40" fill="url(#path40_1_)" d="M97.5,87.883c0,11.823-14.103,21.406-31.5,21.406s-31.5-9.583-31.5-21.406
			c0-11.822,14.103-21.406,31.5-21.406C83.397,66.476,97.5,76.061,97.5,87.883z M66,67.227c-16.566,0-29.996,8.933-29.996,19.951
			c0,11.017,13.429,19.95,29.996,19.95c16.567,0,29.997-8.934,29.997-19.95C95.998,76.159,82.567,67.227,66,67.227z"/>
		
			<linearGradient id="path49_1_" gradientUnits="userSpaceOnUse" x1="1372.0547" y1="-1649.7119" x2="1372.0547" y2="-1819.6536" gradientTransform="matrix(0.2204 0 0 -0.2204 -236.4372 -295.5671)">
			<stop  offset="0" style="stop-color:#FFFFFF"/>
			<stop  offset="0.5" style="stop-color:#BFBFBF"/>
			<stop  offset="1" style="stop-color:#E7E7E7"/>
		</linearGradient>
		<path id="path49" fill="url(#path49_1_)" d="M95.809,86.756c0,10.888-13.346,19.717-29.809,19.717s-29.809-8.829-29.809-19.717
			c0-10.889,13.346-19.715,29.809-19.715C82.463,67.041,95.809,75.867,95.809,86.756z M82.919,77.227c-4.246,0-7.687,2.06-7.687,4.6
			c0,2.541,3.44,4.602,7.687,4.602c4.244,0,7.687-2.061,7.687-4.602C90.604,79.286,87.163,77.227,82.919,77.227z M77.85,92.313
			c-4.246,0-7.688,2.119-7.688,4.732s3.441,4.732,7.688,4.732c4.244,0,7.686-2.119,7.686-4.732S82.094,92.313,77.85,92.313z
			 M56.443,92.313c-4.246,0-7.686,2.119-7.686,4.732s3.44,4.732,7.686,4.732c4.245,0,7.686-2.119,7.686-4.732
			S60.688,92.313,56.443,92.313z M66.02,68.541c-4.246,0-7.687,1.766-7.687,3.943s3.44,3.944,7.687,3.944
			c4.244,0,7.687-1.767,7.687-3.944S70.264,68.541,66.02,68.541z M49.824,77.227c-4.246,0-7.686,2.06-7.686,4.6
			c0,2.541,3.44,4.602,7.686,4.602c4.245,0,7.686-2.061,7.686-4.602C57.51,79.286,54.068,77.227,49.824,77.227z"/>
		<path id="path51" fill="#F2F2F2" d="M49.817,76.568c-4.248,0-7.693,2.133-7.693,4.765c0,0.112,0.016,0.224,0.028,0.336
			c0.267-2.481,3.592-4.442,7.666-4.442c4.071,0,7.393,1.957,7.664,4.435c0.013-0.108,0.029-0.218,0.029-0.328
			C57.511,78.701,54.066,76.568,49.817,76.568z"/>
		<path id="path53" fill="#F2F2F2" d="M82.912,76.568c-4.248,0-7.693,2.133-7.693,4.765c0,0.112,0.016,0.224,0.027,0.336
			c0.268-2.481,3.594-4.442,7.667-4.442c4.071,0,7.393,1.957,7.664,4.435c0.014-0.108,0.029-0.218,0.029-0.328
			C90.605,78.701,87.161,76.568,82.912,76.568z"/>
		<path id="path55" fill="#F2F2F2" d="M66.013,67.979c-4.248,0-7.693,1.828-7.693,4.083c0,0.097,0.016,0.192,0.028,0.288
			c0.267-2.126,3.592-3.809,7.666-3.809c4.07,0,7.393,1.68,7.664,3.803c0.014-0.094,0.029-0.188,0.029-0.282
			C73.707,69.807,70.262,67.979,66.013,67.979z"/>
		<path id="path57" fill="#F2F2F2" d="M77.842,91.637c-4.248,0-7.691,2.193-7.691,4.9c0,0.117,0.016,0.23,0.026,0.347
			c0.268-2.553,3.593-4.571,7.667-4.571c4.07,0,7.393,2.016,7.664,4.563c0.014-0.111,0.029-0.223,0.029-0.338
			C85.537,93.83,82.092,91.637,77.842,91.637z"/>
		<path id="path59" fill="#F2F2F2" d="M56.437,91.637c-4.248,0-7.693,2.193-7.693,4.9c0,0.117,0.015,0.23,0.027,0.347
			c0.267-2.553,3.592-4.571,7.667-4.571c4.07,0,7.393,2.016,7.664,4.563c0.014-0.111,0.029-0.223,0.029-0.338
			C64.131,93.83,60.686,91.637,56.437,91.637z"/>
		
			<linearGradient id="path66_1_" gradientUnits="userSpaceOnUse" x1="1374.5439" y1="-1706.3535" x2="1374.5439" y2="-1743.1396" gradientTransform="matrix(0.2204 0 0 -0.2204 -236.4372 -295.5671)">
			<stop  offset="0" style="stop-color:#EDEDED"/>
			<stop  offset="1" style="stop-color:#D6D6D6"/>
		</linearGradient>
		<path id="path66" fill="url(#path66_1_)" d="M62.699,83.404c0.742-1.15,2.182-1.942,3.862-1.942c1.62,0,3.012,0.739,3.767,1.827
			c0.03-0.01,0.059-0.019,0.089-0.029c0.695-0.359,1.391-0.725,2.036-1.157c-1.215-1.667-3.389-2.786-5.892-2.786
			c-2.509,0-4.698,1.118-5.916,2.789C61.341,82.524,62.01,82.979,62.699,83.404z"/>
		
			<linearGradient id="path73_1_" gradientUnits="userSpaceOnUse" x1="1374.5527" y1="-1706.3579" x2="1374.5527" y2="-1743.1748" gradientTransform="matrix(0.2204 0 0 -0.2204 -236.4372 -295.5671)">
			<stop  offset="0" style="stop-color:#EDEDED"/>
			<stop  offset="1" style="stop-color:#D6D6D6"/>
		</linearGradient>
		<path id="path73" fill="url(#path73_1_)" d="M69.227,84.881c0,1.076-1.198,1.949-2.677,1.949c-1.478,0-2.676-0.873-2.676-1.949
			c0-1.075,1.198-1.947,2.676-1.947C68.028,82.934,69.227,83.806,69.227,84.881z"/>
		
			<linearGradient id="path80_1_" gradientUnits="userSpaceOnUse" x1="1374.5488" y1="-1706.3491" x2="1374.5488" y2="-1743.1721" gradientTransform="matrix(0.2204 0 0 -0.2204 -236.4372 -295.5671)">
			<stop  offset="0" style="stop-color:#EDEDED"/>
			<stop  offset="1" style="stop-color:#D6D6D6"/>
		</linearGradient>
		<path id="path80" fill="url(#path80_1_)" d="M62.696,86.355c0.741,1.152,2.185,1.943,3.864,1.943c1.621,0,3.014-0.738,3.771-1.827
			c0.029,0.011,0.058,0.019,0.088,0.028c0.696,0.361,1.391,0.727,2.038,1.159c-1.217,1.667-3.392,2.788-5.896,2.788
			c-2.509,0-4.7-1.119-5.918-2.791C61.337,87.236,62.008,86.782,62.696,86.355z"/>
		<path id="path82" fill="#FAFAFA" d="M66.562,79.691c2.374,0,4.438,1.013,5.685,2.536c0.068-0.042,0.141-0.08,0.207-0.125
			c-1.215-1.667-3.389-2.786-5.892-2.786c-2.509,0-4.698,1.118-5.917,2.789c0.069,0.042,0.137,0.088,0.205,0.129
			C62.099,80.705,64.182,79.691,66.562,79.691z"/>
		<path id="path84" fill="#FAFAFA" d="M66.55,82.932c-1.478,0-2.675,0.872-2.675,1.947c0,0.064,0.018,0.124,0.026,0.188
			c0.131-0.986,1.259-1.76,2.648-1.76s2.519,0.773,2.649,1.76c0.009-0.063,0.025-0.123,0.025-0.188
			C69.225,83.804,68.027,82.932,66.55,82.932z"/>
		<path id="path86" fill="#FAFAFA" d="M70.419,86.5c-0.03-0.01-0.059-0.018-0.088-0.028c-0.757,1.089-2.149,1.827-3.771,1.827
			c-1.68,0-3.123-0.791-3.864-1.943c-0.688,0.427-1.359,0.881-2.054,1.301c0.063,0.085,0.137,0.162,0.204,0.245
			c0.622-0.383,1.23-0.786,1.85-1.171c0.741,1.152,2.185,1.944,3.864,1.944c1.621,0,3.014-0.739,3.771-1.827
			c0.029,0.01,0.058,0.018,0.088,0.027c0.623,0.324,1.241,0.657,1.83,1.033c0.067-0.084,0.144-0.162,0.208-0.249
			C71.81,87.227,71.115,86.861,70.419,86.5z"/>
	</g>
</g>
</svg>
